<?xml version="1.0" encoding="UTF-8" standalone="no"?>
<!DOCTYPE svg PUBLIC "-//W3C//DTD SVG 1.1//EN" "http://www.w3.org/Graphics/SVG/1.1/DTD/svg11.dtd">
<svg width="100%" height="100%" viewBox="0 0 4375 1500" version="1.1" xmlns="http://www.w3.org/2000/svg" xmlns:xlink="http://www.w3.org/1999/xlink" xml:space="preserve" xmlns:serif="http://www.serif.com/" style="fill-rule:evenodd;clip-rule:evenodd;stroke-linejoin:round;stroke-miterlimit:2;">
    <g transform="matrix(1.75062,0,0,0.599357,-9.09495e-13,-2.9459)">
        <rect x="0" y="0" width="2500" height="2500" style="fill:white;"/>
    </g>
    <g transform="matrix(1,0,0,1,197.375,-64.8099)">
        <path d="M36.756,469.246L37.716,453.164L40.543,437.081L45.277,421.932L50.958,406.797L58.533,393.542L67.041,381.246L77.455,368.938L88.817,357.576L101.112,348.108L114.367,339.6L129.503,332.973L144.652,327.292L160.747,322.571L177.777,320.677L193.859,319.731L1232.97,319.731L1251.89,320.677L1269.87,322.571L1286.92,326.358L1303.94,332.026L1320.02,339.6L1334.21,348.108L1348.43,357.576L1359.78,367.991L1372.08,379.353L1381.54,392.595L1389.11,405.85L1395.74,420.039L1400.48,434.241L1403.32,450.323L1404.25,466.406L1404.25,1240.53L1403.32,1255.68L1400.48,1269.87L1395.74,1283.12L1389.11,1296.37L1380.59,1307.74L1371.12,1320.02L1359.78,1330.44L1347.49,1339.92L1333.28,1348.43L1318.16,1356L1303.01,1362.62L1285.02,1367.35L1267.03,1371.12L1250,1373.02L1230.13,1373.99L191.019,1373.99L173.043,1373.02L156.013,1371.12L138.024,1366.42L122.889,1360.71L106.793,1353.16L92.604,1345.59L81.243,1335.17L69.881,1324.77L59.479,1312.45L51.905,1300.17L44.331,1285.95L39.61,1271.78L37.716,1256.63L36.756,1240.53L36.756,469.246Z" style="fill:rgb(204,34,41);"/>
    </g>
    <g transform="matrix(1,0,0,1,197.375,-64.8099)">
        <path d="M1170.51,1039.9L1170.51,1144.96L263.896,1144.96L263.896,1041.8L299.861,1006.78L299.861,665.154L263.896,631.083L263.896,537.389L328.239,537.389L328.239,595.118L362.31,595.118L362.31,537.389L426.666,537.389L426.666,595.118L463.578,595.118L463.578,537.389L526.041,537.389L526.041,631.083L494.81,663.261L494.81,813.723L616.881,813.723L616.881,763.569L586.597,729.51L586.597,632.976L648.112,632.976L648.112,687.864L679.343,687.864L679.343,632.976L749.38,632.976L749.38,687.864L785.332,687.864L785.332,632.976L854.422,632.976L854.422,729.51L814.67,767.356L814.67,813.723L940.541,813.723L940.541,663.261L904.576,629.189L904.576,537.389L967.039,537.389L967.039,595.118L1007.74,595.118L1007.74,537.389L1068.31,537.389L1068.31,595.118L1109.94,595.118L1109.94,537.389L1168.62,537.389L1168.62,631.083L1136.44,665.154L1136.44,1011.51L1170.51,1039.9Z" style="fill:white;"/>
    </g>
    <g transform="matrix(1,0,0,1,197.375,-64.8099)">
        <path d="M187.374,1288.66L170.345,1286.78C168.408,1286.29 166.499,1285.7 164.625,1285.01L148.543,1276.5C147.216,1275.59 145.919,1274.64 144.652,1273.66L132.343,1261.37C131.363,1260.1 130.42,1258.8 129.516,1257.47L121.008,1241.38C120.364,1239.7 119.797,1238 119.309,1236.28L116.468,1217.36L116.287,1214.97L116.287,473.98C116.287,473.837 116.572,471.153 116.598,471.023L119.439,455.887C119.555,455.2 121.617,450.297 122.007,449.727L130.515,437.431C130.683,437.211 133.135,434.461 133.342,434.293L145.65,423.878C147.045,422.965 148.473,422.105 149.93,421.297L166.026,414.669C166.208,414.592 169.281,413.697 169.476,413.671L186.505,410.817L189.151,410.571L1255.69,410.571C1255.84,410.571 1258.51,410.856 1258.64,410.882L1278.52,414.669C1279.13,414.786 1283.97,416.77 1284.5,417.121L1301.52,428.469C1302,428.793 1305.47,432.217 1305.8,432.684L1316.21,447.82C1316.56,448.365 1318.65,453.164 1318.77,453.786L1322.57,472.709C1322.59,472.865 1322.86,475.692 1322.86,475.848L1322.86,1218.77L1322.73,1220.53L1320.85,1237.56C1320.39,1239.38 1319.87,1241.19 1319.28,1242.97L1311.71,1258.12C1310.74,1259.53 1309.74,1260.91 1308.7,1262.27L1297.33,1273.62C1297.17,1273.77 1294.38,1275.95 1294.19,1276.07L1280,1284.58C1277.91,1285.43 1275.77,1286.17 1273.59,1286.78L1257.5,1288.66L1255.67,1288.79L189.138,1288.79L187.374,1288.66ZM189.748,1256.63L1254.92,1256.63L1266.52,1255.27L1275.99,1249.59L1284.05,1241.52L1289.23,1231.13L1290.67,1218.15L1290.67,477.443L1287.83,463.228L1281.09,453.436L1269.36,445.615L1254.35,442.749L190.266,442.749L176.441,445.057L164.496,449.973L155.65,457.47L150.333,465.148L148.439,475.277L148.439,1213.84L150.696,1228.88L156.701,1240.23L165.754,1249.29L176.882,1255.19L189.748,1256.63Z" style="fill:white;fill-rule:nonzero;"/>
    </g>
    <g transform="matrix(1,0,0,1,197.375,-64.8099)">
        <path d="M380.299,689.758L418.145,689.758L418.145,816.563L380.299,816.563L380.299,689.758ZM380.299,920.672L418.145,920.672L418.145,1046.53L380.299,1046.53L380.299,920.672ZM531.721,920.672L570.514,920.672L570.514,1019.09L531.721,1019.09L531.721,920.672ZM1024.77,689.758L1062.63,689.758L1062.63,816.563L1024.77,816.563L1024.77,689.758ZM1024.77,920.672L1062.63,920.672L1062.63,1046.53L1024.77,1046.53L1024.77,920.672ZM875.239,920.672L913.097,920.672L913.097,1019.09L875.239,1019.09L875.239,920.672ZM637.697,1095.74L637.697,959.464L641.485,940.541L649.059,923.512L659.474,908.363L671.769,897.002L685.971,887.547L701.107,881.866L717.202,879.026L733.285,879.026L749.38,882.813L764.516,889.441L777.758,900.789L789.119,915.938L798.587,935.807L804.268,959.464L804.268,1095.74L637.697,1095.74Z" style="fill:rgb(204,34,41);"/>
    </g>
    <g transform="matrix(1,0,0,1,1735.14,-901.446)">
        <path d="M50.958,1549.99L50.958,1685.33L51.905,1697.62L51.905,1709L53.799,1720.35L56.639,1729.82L59.479,1738.33L63.254,1746.85L69.881,1754.42L75.575,1760.09L79.349,1763.86L83.136,1765.77L86.923,1768.6L94.498,1774.28L98.285,1776.17L103.006,1778.08L106.793,1779.01L111.527,1780.9L116.261,1781.85L120.995,1783.75L126.676,1783.75L131.397,1784.69L136.131,1785.65L158.854,1785.65L163.575,1784.69L169.255,1783.75L173.989,1783.75L179.67,1781.85L183.457,1780.9L188.178,1779.01L192.925,1778.08L197.646,1776.17L201.433,1774.28L209.008,1768.6L212.782,1765.77L216.569,1763.86L219.41,1760.09L226.037,1754.42L231.718,1746.85L235.505,1738.33L238.332,1729.82L241.186,1720.35L243.066,1709L244.013,1697.62L244.013,1549.99L185.351,1549.99L185.351,1703.29L183.457,1712.77L181.564,1720.35L177.777,1726.02L172.096,1730.75L165.468,1734.52L156.96,1735.5L147.492,1736.43L137.077,1735.5L128.569,1734.52L122.889,1730.75L117.208,1726.02L113.421,1720.35L110.58,1712.77L109.633,1703.29L108.687,1692.9L108.687,1549.99L50.958,1549.99ZM276.191,1703.29L277.138,1712.77L279.032,1722.24L281.872,1730.75L283.765,1739.27L287.553,1746.85L291.327,1753.47L297.021,1759.15L301.742,1764.82L308.369,1770.5L314.997,1774.28L322.571,1778.08L331.079,1779.97L339.6,1782.81L349.068,1784.69L359.47,1785.65L382.193,1785.65L392.595,1784.69L403.956,1782.81L412.464,1780.9L421.932,1778.08L429.507,1774.28L437.081,1770.5L444.655,1765.77L450.323,1761.02L455.057,1755.35L459.791,1749.67L463.578,1743.07L466.406,1736.43L468.299,1728.86L469.259,1721.28L470.193,1712.77L469.259,1705.2L468.299,1698.59L466.406,1691.94L464.525,1685.33L460.738,1679.66L456.951,1673.96L452.217,1669.25L447.483,1664.51L445.589,1662.61L442.749,1661.67L439.908,1659.78L437.081,1657.87L434.228,1656.01L431.4,1655.03L428.56,1654.1L424.773,1652.2L420.986,1651.26L417.198,1650.3L413.411,1648.43L409.624,1646.53L404.903,1645.59L400.169,1644.63L396.382,1641.79L390.701,1640.86L384.074,1638.02L378.406,1636.11L372.725,1634.22L367.044,1633.28L362.31,1631.38L357.576,1630.44L353.789,1628.54L350.962,1626.64L347.175,1624.76L344.334,1622.87L342.441,1620.96L340.547,1619.09L338.654,1616.23L337.707,1614.36L336.76,1610.56L336.76,1603.94L338.654,1600.14L341.494,1597.3L345.281,1593.53L350.015,1590.69L354.749,1588.8L362.31,1587.86L367.991,1586.9L376.512,1587.86L384.074,1588.8L389.754,1591.64L396.382,1595.44L400.169,1599.21L403.956,1604.88L405.85,1610.56L407.743,1619.09L462.632,1619.09L461.685,1610.56L460.738,1603.01L458.844,1595.44L456.004,1587.86L453.164,1581.22L448.443,1574.61L443.696,1569.87L438.015,1563.23L432.334,1559.46L425.72,1555.66L418.145,1551.88L409.624,1549.06L402.063,1546.22L392.595,1544.31L382.193,1543.38L362.31,1543.38L351.896,1544.31L342.441,1546.22L333.933,1548.11L325.398,1551.88L318.784,1554.73L311.21,1558.53L305.529,1563.23L299.861,1567.98L295.114,1573.65L290.393,1579.33L287.553,1585.02L284.712,1592.57L282.819,1599.21L280.925,1614.36L281.872,1620.03L281.872,1625.71L282.819,1630.44L283.765,1634.22L285.659,1639.91L288.499,1644.63L290.393,1648.43L293.233,1652.2L297.954,1656.01L300.795,1659.78L305.529,1663.55L309.316,1666.38L314.997,1670.18L319.731,1673.02L325.398,1675.86L331.079,1677.76L337.707,1680.6L343.387,1683.44L349.068,1685.33L354.749,1687.21L360.43,1688.17L365.151,1690.05L370.832,1691.94L375.565,1693.85L380.299,1694.79L384.074,1695.75L387.861,1697.62L391.648,1698.59L396.382,1699.52L399.222,1701.43L404.903,1703.29L406.797,1705.2L407.743,1706.16L409.624,1708.03L411.518,1709.93L411.518,1711.83L412.464,1714.67L413.411,1716.57L413.411,1725.08L411.518,1728.86L407.743,1732.66L403.956,1736.43L398.276,1738.33L391.648,1740.2L384.074,1742.1L370.832,1742.1L366.098,1741.16L362.31,1740.2L357.576,1740.2L353.789,1738.33L350.962,1736.43L347.175,1734.52L344.334,1732.66L341.494,1729.82L338.654,1726.95L336.76,1723.18L335.813,1720.35L334.866,1715.6L333.933,1711.83L332.973,1707.09L332.973,1703.29L276.191,1703.29ZM622.562,1650.3L659.474,1549.99L722.87,1549.99L757.901,1650.3L701.107,1650.3L688.811,1610.56L676.503,1650.3L622.562,1650.3Z"/>
    </g>
    <g transform="matrix(1,0,0,1,1735.14,-901.446)">
        <path d="M622.562,1650.3L577.142,1779.01L637.697,1779.01L650.006,1736.43L726.657,1736.43L740.859,1779.01L803.321,1779.01L757.901,1650.3L701.107,1650.3L714.362,1689.1L664.195,1689.1L676.503,1650.3L622.562,1650.3ZM823.191,1779.01L878.079,1779.01L878.079,1706.16L879.026,1693.85L880.919,1682.5L883.76,1674.93L886.6,1671.13L889.441,1668.29L893.228,1665.45L897.962,1663.55L901.736,1661.67L907.417,1659.78L932.02,1659.78L932.02,1604.88L927.299,1605.84L922.552,1605.84L917.831,1606.79L913.097,1606.79L909.31,1608.68L905.523,1610.56L901.736,1611.52L897.962,1613.39L895.108,1616.23L891.334,1619.09L888.481,1620.96L885.653,1624.76L883.76,1627.6L880.919,1631.38L878.079,1634.22L876.185,1638.95L876.185,1609.61L823.191,1609.61L823.191,1779.01ZM957.584,1779.01L1011.52,1779.01L1011.52,1678.7L1013.41,1670.18L1015.3,1663.55L1017.19,1657.87L1021.93,1653.14L1025.71,1650.3L1031.39,1648.43L1037.06,1647.46L1043.69,1648.43L1049.37,1649.37L1053.16,1652.2L1056.94,1656.01L1058.84,1660.71L1060.73,1666.38L1061.67,1673.96L1061.67,1779.01L1110.89,1779.01L1110.89,1688.17L1111.83,1678.7L1111.83,1670.18L1113.73,1663.55L1117.51,1657.87L1120.34,1653.14L1125.09,1650.3L1130.76,1648.43L1137.38,1647.46L1143.06,1648.43L1148.75,1649.37L1153.48,1652.2L1156.31,1656.01L1158.2,1660.71L1160.09,1666.38L1161.04,1673.96L1161.04,1779.01L1214.98,1779.01L1214.98,1657.87L1214.04,1651.26L1213.09,1644.63L1212.14,1639.91L1210.25,1634.22L1207.42,1628.54L1204.57,1624.76L1200.79,1620.96L1197.95,1617.19L1193.22,1614.36L1183.75,1608.68L1179.03,1607.72L1173.35,1606.79L1166.72,1605.84L1160.09,1604.88L1155.37,1604.88L1151.59,1605.84L1147.8,1606.79L1144.01,1606.79L1141.17,1608.68L1137.38,1608.68L1133.6,1610.56L1130.76,1612.45L1127.92,1614.36L1124.13,1616.23L1122.25,1619.09L1119.41,1620.96L1116.55,1622.87L1113.73,1626.64L1111.83,1629.48L1109.94,1632.34L1108.05,1629.48L1106.15,1626.64L1104.26,1622.87L1102.37,1620.96L1099.53,1619.09L1096.7,1616.23L1094.8,1614.36L1091.02,1612.45L1088.18,1610.56L1084.39,1608.68L1081.55,1608.68L1077.76,1606.79L1073.97,1606.79L1069.24,1605.84L1064.52,1604.88L1056.94,1604.88L1053.16,1605.84L1048.42,1606.79L1045.58,1606.79L1040.85,1608.68L1038.02,1608.68L1034.24,1610.56L1031.39,1612.45L1027.61,1614.36L1025.71,1616.23L1021.93,1619.09L1020.03,1620.96L1017.19,1622.87L1015.3,1626.64L1012.46,1629.48L1010.57,1632.34L1010.57,1609.61L957.584,1609.61L957.584,1779.01ZM1345.59,1797.93L1412.77,1609.61L1354.1,1609.61L1321.93,1725.08L1290.7,1609.61L1230.13,1609.61L1287.86,1759.15L1288.79,1763.86L1290.7,1768.6L1292.59,1772.4L1293.53,1775.24L1295.43,1779.01L1295.43,1791.32L1294.47,1796.05L1292.59,1798.89L1288.79,1800.77L1285.02,1802.67L1281.22,1803.63L1275.55,1803.63L1268.94,1804.57L1258.52,1804.57L1258.52,1849.05L1285.95,1849.05L1288.79,1848.09L1298.27,1848.09L1301.1,1847.15L1305.85,1847.15L1308.67,1846.22L1310.58,1846.22L1312.45,1845.25L1315.29,1844.31L1317.2,1843.38L1321.93,1840.54L1325.7,1837.67L1329.51,1832.97L1333.28,1828.23L1336.12,1821.59L1339.92,1814.98L1341.79,1806.47L1345.59,1797.93ZM1735.5,1697.62L1681.53,1697.62L1680.6,1702.36L1679.64,1706.16L1678.7,1709.93L1676.8,1713.71L1674.93,1716.57L1672.09,1720.35L1670.18,1723.18L1666.41,1726.02L1663.55,1727.92L1660.71,1729.82L1656.94,1731.7L1653.16,1732.66L1649.37,1733.59L1644.63,1734.52L1639.88,1734.52L1635.18,1735.5L1629.48,1734.52L1623.8,1734.52L1618.13,1732.66L1613.39,1730.75L1608.68,1727.92L1604.88,1725.08L1601.11,1721.28L1598.26,1716.57L1593.53,1712.77L1591.64,1707.09L1588.8,1701.43L1586.9,1694.79L1585.96,1688.17L1584.06,1680.6L1584.06,1648.43L1585.96,1639.91L1587.86,1633.28L1589.73,1627.6L1591.64,1620.96L1595.44,1616.23L1598.26,1610.56L1602.04,1606.79L1605.84,1603.01L1609.61,1599.21L1615.29,1597.3L1620.03,1594.48L1625.71,1593.53L1631.38,1591.64L1640.86,1591.64L1645.59,1592.57L1649.37,1593.53L1653.16,1593.53L1656.94,1595.44L1660.71,1597.3L1663.55,1598.26L1666.41,1600.14L1668.29,1602.04L1671.13,1604.88L1673.96,1607.72L1675.86,1610.56L1677.76,1613.39L1678.7,1617.19L1680.6,1620.96L1681.53,1624.76L1736.43,1624.76L1735.5,1616.23L1733.59,1606.79L1730.75,1599.21L1726.98,1590.69L1723.18,1583.12L1717.51,1576.49L1712.77,1569.87L1706.16,1565.14L1700.45,1559.46L1691.94,1555.66L1676.8,1548.11L1667.35,1546.22L1658.83,1544.31L1649.37,1543.38L1638.95,1542.42L1625.71,1543.38L1613.39,1545.26L1602.04,1548.11L1590.69,1551.88L1580.29,1556.63L1571.78,1561.37L1562.3,1568.94L1554.73,1575.55L1548.11,1585.02L1540.54,1593.53L1531.07,1614.36L1528.23,1626.64L1525.39,1638.02L1523.49,1651.26L1523.49,1678.7L1525.39,1691.01L1528.23,1703.29L1531.07,1714.67L1535.8,1725.08L1540.54,1734.52L1547.15,1744.01L1554.73,1752.51L1562.3,1759.15L1570.81,1765.77L1580.29,1771.44L1589.73,1776.17L1600.14,1779.97L1611.52,1782.81L1622.87,1783.75L1635.18,1784.69L1645.59,1784.69L1655.03,1783.75L1664.51,1781.85L1681.53,1776.17L1690.08,1772.4L1696.68,1766.73L1704.25,1761.99L1709.93,1756.31L1715.6,1749.67L1720.35,1742.1L1725.08,1734.52L1728.86,1726.02L1731.7,1716.57L1734.52,1707.09L1735.5,1697.62ZM1757.25,1693.85L1758.19,1683.44L1759.15,1673.02L1761.02,1663.55L1762.93,1655.03L1766.73,1646.53L1771.44,1639.91L1775.24,1632.34L1780.9,1626.64L1787.52,1620.96L1794.16,1616.23L1800.8,1612.45L1809.31,1608.68L1817.82,1605.84L1827.3,1603.94L1836.74,1603.01L1857.57,1603.01L1867.04,1603.94L1875.55,1605.84L1885,1608.68L1900.15,1616.23L1906.79,1620.96L1912.46,1626.64L1918.14,1632.34L1922.87,1639.91L1926.65,1647.46L1930.45,1655.03L1933.29,1663.55L1935.15,1673.02L1936.11,1683.44L1936.11,1693.85L1880.29,1693.85L1879.32,1682.5L1877.45,1672.09L1875.55,1663.55L1871.75,1657.87L1867.04,1652.2L1861.34,1648.43L1853.79,1646.53L1847.15,1645.59L1839.58,1646.53L1832.97,1648.43L1827.3,1652.2L1822.55,1657.87L1818.75,1663.55L1815.92,1672.09L1814.04,1682.5L1814.04,1693.85L1757.25,1693.85ZM1757.25,1693.85L1758.19,1703.29L1759.15,1712.77L1761.02,1723.18L1762.93,1731.7L1766.73,1739.27L1771.44,1746.85L1775.24,1754.42L1786.59,1765.77L1794.16,1770.5L1800.8,1774.28L1809.31,1778.08L1817.82,1780.9L1827.3,1782.81L1836.74,1783.75L1857.57,1783.75L1867.04,1782.81L1875.55,1780.9L1885,1778.08L1892.57,1774.28L1900.15,1770.5L1906.79,1765.77L1912.46,1760.09L1918.14,1753.47L1922.87,1746.85L1926.65,1739.27L1930.45,1730.75L1933.29,1723.18L1935.15,1712.77L1936.11,1703.29L1936.11,1693.85L1880.29,1693.85L1879.32,1704.25L1877.45,1713.71L1875.55,1722.24L1871.75,1728.86L1867.04,1734.52L1861.34,1738.33L1853.79,1740.2L1847.15,1741.16L1839.58,1740.2L1832.97,1738.33L1827.3,1734.52L1822.55,1728.86L1818.75,1722.24L1815.92,1713.71L1814.04,1704.25L1814.04,1693.85L1757.25,1693.85ZM1965.45,1778.08L2021.29,1778.08L2021.29,1705.2L2022.25,1691.94L2024.11,1681.53L2026.95,1673.96L2029.79,1670.18L2032.63,1667.35L2036.43,1663.55L2040.21,1661.67L2044.94,1660.71L2049.68,1659.78L2055.36,1658.83L2061.03,1657.87L2065.76,1657.87L2067.67,1658.83L2071.44,1658.83L2073.33,1659.78L2074.28,1659.78L2074.28,1604.88L2064.82,1604.88L2060.09,1605.84L2056.29,1606.79L2052.52,1607.72L2048.74,1608.68L2044.94,1610.56L2041.17,1612.45L2038.33,1614.36L2034.53,1617.19L2031.69,1620.96L2028.86,1622.87L2026.02,1626.64L2024.11,1630.44L2021.29,1634.22L2018.45,1638.02L2018.45,1608.68L1965.45,1608.68L1965.45,1778.08ZM2100.78,1693.85L2100.78,1608.68L2156.6,1608.68L2156.6,1631.38L2158.51,1628.54L2160.4,1624.76L2164.17,1621.93L2166.08,1619.09L2168.92,1616.23L2172.71,1614.36L2174.59,1612.45L2178.39,1610.56L2181.23,1608.68L2184.06,1607.72L2187.84,1606.79L2191.63,1605.84L2194.47,1604.88L2198.24,1604.88L2202.05,1603.94L2205.82,1603.94L2213.39,1604.88L2221.9,1605.84L2228.54,1607.72L2235.16,1610.56L2240.83,1613.39L2247.47,1618.13L2253.15,1622.87L2257.88,1628.54L2262.61,1634.22L2266.39,1640.86L2269.23,1648.43L2273.03,1656.01L2274.9,1664.51L2276.8,1673.96L2276.8,1683.44L2277.74,1692.9L2277.74,1693.85L2220.03,1693.85L2220.03,1684.37L2218.13,1675.86L2215.3,1667.35L2211.5,1660.71L2206.78,1655.03L2202.05,1651.26L2194.47,1649.37L2187.84,1648.43L2180.27,1649.37L2173.66,1651.26L2167.97,1655.03L2163.24,1659.78L2160.4,1667.35L2157.57,1674.93L2155.67,1684.37L2154.73,1693.85L2100.78,1693.85Z"/>
    </g>
    <g transform="matrix(1,0,0,1,1735.14,-901.446)">
        <path d="M2100.78,1693.85L2100.78,1846.22L2156.6,1846.22L2156.6,1757.25L2158.51,1760.09L2160.4,1762.93L2162.31,1765.77L2165.15,1768.6L2167.97,1770.5L2170.81,1773.34L2174.59,1775.24L2177.43,1777.12L2180.27,1778.08L2184.06,1779.97L2187.84,1780.9L2191.63,1781.85L2194.47,1782.81L2198.24,1783.75L2214.33,1783.75L2221.9,1781.85L2228.54,1779.97L2235.16,1777.12L2240.83,1774.28L2247.47,1769.57L2252.2,1764.82L2256.95,1759.15L2261.66,1752.51L2265.45,1745.9L2269.23,1738.33L2272.07,1730.75L2274.9,1721.28L2275.87,1712.77L2276.8,1703.29L2277.74,1693.85L2220.03,1693.85L2220.03,1705.2L2218.13,1714.67L2215.3,1722.24L2211.5,1727.92L2206.78,1732.66L2202.05,1736.43L2195.41,1739.27L2187.84,1740.2L2181.23,1739.27L2174.59,1736.43L2167.97,1733.59L2164.17,1728.86L2160.4,1722.24L2157.57,1714.67L2155.67,1705.2L2154.73,1695.75L2154.73,1693.85L2100.78,1693.85ZM2298.57,1726.95L2299.53,1732.66L2300.46,1739.27L2303.3,1744.94L2306.14,1750.62L2308.97,1755.35L2312.77,1760.09L2317.51,1764.82L2322.22,1768.6L2327.89,1772.4L2333.6,1775.24L2340.21,1778.08L2347.79,1779.97L2355.36,1781.85L2363.87,1782.81L2373.34,1783.75L2391.33,1783.75L2400.77,1782.81L2408.34,1781.85L2415.92,1779.97L2424.44,1777.12L2430.11,1774.28L2436.75,1771.44L2441.48,1768.6L2447.16,1763.86L2451.87,1759.15L2454.74,1754.42L2457.56,1749.67L2460.4,1744.01L2461.34,1737.37L2463.24,1731.7L2463.24,1719.4L2462.28,1713.71L2460.4,1709L2459.44,1704.25L2456.6,1699.52L2453.76,1695.75L2449.99,1691.94L2445.26,1688.17L2443.36,1687.21L2441.48,1686.28L2439.59,1685.33L2437.68,1684.37L2435.79,1683.44L2432.95,1682.5L2430.11,1681.53L2428.24,1679.66L2424.44,1679.66L2420.66,1677.76L2417.8,1676.82L2413.09,1675.86L2409.29,1673.96L2404.57,1673.02L2400.77,1672.09L2396.03,1670.18L2388.46,1668.29L2380.89,1666.38L2374.27,1663.55L2368.6,1661.67L2364.8,1659.78L2361.03,1657.87L2359.14,1654.1L2359.14,1647.46L2360.1,1644.63L2361.96,1641.79L2363.87,1639.91L2366.71,1638.02L2371.44,1636.11L2388.46,1636.11L2393.19,1638.02L2396.99,1639.91L2398.88,1641.79L2401.72,1645.59L2402.68,1648.43L2404.57,1652.2L2457.56,1652.2L2456.6,1646.53L2455.67,1640.86L2453.76,1636.11L2450.93,1630.44L2448.1,1626.64L2443.36,1622.87L2435.79,1615.29L2430.11,1612.45L2424.44,1609.61L2417.8,1607.72L2411.18,1605.84L2403.61,1604.88L2396.03,1603.01L2361.96,1603.01L2354.39,1604.88L2347.79,1606.79L2341.15,1608.68L2334.53,1610.56L2329.8,1614.36L2324.12,1617.19L2320.34,1620.96L2315.61,1625.71L2312.77,1630.44L2309.94,1635.18L2308.03,1639.91L2306.14,1645.59L2305.19,1651.26L2305.19,1662.61L2306.14,1667.35L2306.14,1672.09L2308.03,1675.86L2309.94,1679.66L2311.81,1682.5L2315.61,1685.33L2318.45,1689.1L2322.22,1691.94L2326.02,1694.79L2329.8,1697.62L2335.47,1699.52L2341.15,1702.36L2346.84,1704.25L2353.45,1707.09L2360.1,1709L2364.8,1710.87L2371.44,1712.77L2375.22,1713.71L2380.89,1714.67L2384.69,1716.57L2388.46,1716.57L2392.26,1718.44L2396.03,1719.4L2398.88,1720.35L2400.77,1721.28L2403.61,1723.18L2405.51,1724.12L2406.45,1726.02L2408.34,1727.92L2408.34,1736.43L2406.45,1739.27L2404.57,1742.1L2401.72,1744.01L2398.88,1746.85L2394.17,1747.78L2388.46,1748.74L2377.11,1748.74L2371.44,1747.78L2366.71,1745.9L2361.96,1743.07L2359.14,1740.2L2356.3,1736.43L2355.36,1731.7L2353.45,1726.95L2298.57,1726.95ZM39.61,2020.34L40.543,2009.94L41.503,2000.46L44.331,1991.02L46.224,1982.48L50.011,1973.96L53.799,1966.38L58.533,1959.78L63.254,1953.14L69.881,1948.43L77.455,1943.69L84.083,1938.95L91.657,1936.11L101.112,1933.29L109.633,1931.38L119.101,1930.45L129.503,1929.49L139.918,1930.45L149.386,1931.38L158.854,1933.29L167.362,1936.11L175.883,1938.95L182.511,1943.69L189.138,1948.43L195.753,1954.1L201.433,1959.78L206.167,1966.38L209.955,1974.92L212.782,1982.48L215.622,1991.02L217.516,2000.46L219.41,2009.94L219.41,2020.34L162.641,2020.34L161.681,2009.94L160.747,1999.52L157.894,1991.02L154.107,1984.37L149.386,1979.64L143.705,1974.92L137.077,1973.03L122.889,1973.03L115.314,1974.92L110.58,1979.64L104.899,1984.37L102.072,1991.02L99.219,1999.52L97.325,2009.94L97.325,2020.34L39.61,2020.34Z"/>
    </g>
    <g transform="matrix(1,0,0,1,1735.14,-901.446)">
        <path d="M39.61,2020.34L40.543,2030.75L41.503,2040.21L44.331,2049.68L46.224,2059.13L53.799,2074.28L58.533,2080.91L63.254,2086.59L69.881,2092.26L76.509,2097.94L84.083,2101.74L91.657,2104.58L101.112,2108.35L109.633,2110.25L119.101,2110.25L129.503,2111.18L139.918,2110.25L149.386,2110.25L158.854,2108.35L167.362,2104.58L175.883,2101.74L182.511,2097L189.138,2092.26L195.753,2086.59L201.433,2080.91L206.167,2073.33L209.955,2066.71L212.782,2058.18L215.622,2049.68L217.516,2040.21L219.41,2030.75L219.41,2020.34L162.641,2020.34L161.681,2031.69L160.747,2041.17L157.894,2049.68L154.107,2056.29L149.386,2061.03L143.705,2064.82L137.077,2067.67L129.503,2068.6L122.889,2067.67L115.314,2064.82L110.58,2061.03L104.899,2056.29L102.072,2049.68L99.219,2041.17L97.325,2031.69L97.325,2020.34L39.61,2020.34ZM257.268,2105.51L313.103,2105.51L313.103,1973.96L340.547,1973.96L340.547,1939.89L313.103,1939.89L313.103,1923.81L314.997,1920.03L316.89,1916.23L319.731,1914.36L322.571,1912.46L327.292,1911.52L340.547,1911.52L340.547,1874.61L323.505,1874.61L321.611,1873.65L315.943,1873.65L308.369,1874.61L301.742,1874.61L295.114,1875.55L288.499,1876.49L283.765,1878.38L278.085,1880.29L274.298,1883.12L270.51,1885.96L266.736,1889.73L263.896,1894.47L262.002,1898.27L260.109,1903.95L258.215,1908.66L258.215,1915.3L257.268,1921.91L256.321,1928.54L256.321,1937.06L257.268,1939.89L232.665,1939.89L232.665,1973.96L257.268,1973.96L257.268,2105.51ZM458.844,2112.15L636.764,2112.15L636.764,2064.82L517.52,2064.82L517.52,2015.61L623.508,2015.61L623.508,1970.18L517.52,1970.18L517.52,1929.49L632.976,1929.49L632.976,1882.16L458.844,1882.16L458.844,2112.15ZM675.556,2113.09L730.444,2113.09L730.444,2022.22L731.391,2012.77L732.338,2004.26L734.231,1996.68L737.072,1991.02L741.806,1987.21L746.54,1984.37L752.22,1981.53L758.835,1981.53L766.409,1982.48L772.09,1984.37L775.877,1988.17L778.718,1992.88L780.611,1999.52L781.545,2007.1L781.545,2113.09L837.38,2113.09L837.38,1994.79L836.446,1987.21L835.486,1980.6L834.552,1974.92L832.659,1969.23L830.765,1963.56L827.925,1958.81L825.085,1955.04L821.297,1951.26L816.563,1947.46L812.776,1945.57L807.095,1943.69L801.428,1941.79L795.747,1940.86L789.119,1938.95L776.824,1938.95L773.037,1939.89L768.303,1940.86L765.463,1940.86L761.675,1941.79L757.901,1943.69L754.114,1944.63L751.274,1946.53L748.433,1948.43L744.646,1950.3L741.806,1952.21L739.912,1955.04L737.072,1956.94L734.231,1960.72L732.338,1963.56L730.444,1966.38L730.444,1943.69L675.556,1943.69L675.556,2113.09ZM858.196,2026.02L858.196,2017.51L860.103,2008.03L861.984,1998.56L863.89,1990.06L866.73,1982.48L870.518,1974.92L874.292,1969.23L878.079,1962.61L883.76,1956.94L889.441,1952.21L895.108,1947.46L901.736,1944.63L907.417,1940.86L914.991,1938.95L921.619,1938.95L929.18,1938.02L933.914,1938.02L938.648,1938.95L946.222,1938.95L950.009,1940.86L952.837,1941.79L956.624,1943.69L960.411,1944.63L963.251,1946.53L966.092,1948.43L968.932,1951.26L972.719,1953.14L975.56,1955.98L978.4,1958.81L980.294,1961.65L983.121,1965.45L983.121,1942.73L1035.18,1942.73L1035.18,2026.02L980.294,2026.02L980.294,2015.61L978.4,2006.14L976.507,1998.56L972.719,1991.95L967.985,1988.17L962.305,1984.37L956.624,1982.48L949.063,1981.53L940.541,1982.48L934.874,1984.37L929.18,1988.17L924.459,1992.88L920.672,1999.52L917.831,2007.1L915.938,2015.61L915.938,2026.02L858.196,2026.02Z"/>
    </g>
    <g transform="matrix(1,0,0,1,1735.14,-901.446)">
        <path d="M858.196,2026.02L858.196,2036.43L860.103,2045.9L861.984,2054.41L863.89,2062.93L866.73,2070.51L870.518,2077.11L874.292,2084.68L879.026,2090.36L883.76,2096.03L889.441,2100.78L895.108,2104.58L901.736,2107.41L907.417,2110.25L914.991,2112.15L921.619,2113.09L929.18,2114.02L932.967,2114.02L937.701,2113.09L941.488,2113.09L945.275,2112.15L949.063,2111.18L952.837,2110.25L956.624,2108.35L959.464,2107.41L962.305,2105.51L966.092,2103.61L967.985,2100.78L971.773,2098.9L974.613,2096.03L976.507,2093.2L979.347,2090.36L981.241,2086.59L981.241,2114.02L980.294,2121.59L978.4,2128.24L974.613,2132.94L970.826,2136.74L964.198,2139.58L957.584,2141.48L943.382,2141.48L938.648,2140.52L934.874,2139.58L932.02,2137.68L929.18,2135.81L926.34,2133.9L925.393,2130.1L923.512,2126.33L867.664,2126.33L869.558,2133.9L870.518,2139.58L873.345,2146.2L879.026,2155.67L882.813,2159.47L887.547,2164.17L892.268,2167.01L897.962,2170.81L903.629,2173.66L909.31,2175.55L916.885,2177.43L924.459,2179.32L932.967,2179.32L940.541,2180.27L963.251,2180.27L969.879,2179.32L975.56,2178.39L981.241,2177.43L985.974,2175.55L991.642,2174.59L996.376,2172.71L1001.11,2169.86L1005.83,2167.97L1009.62,2165.15L1013.41,2162.31L1016.25,2159.47L1020.03,2155.67L1021.93,2152.82L1024.77,2149.05L1027.61,2142.42L1030.45,2135.81L1032.34,2129.17L1033.28,2120.66L1035.18,2112.15L1035.18,2026.02L980.294,2026.02L980.294,2036.43L978.4,2044.94L976.507,2052.52L972.719,2059.13L967.039,2062.93L961.358,2066.71L954.73,2069.53L940.541,2069.53L934.874,2066.71L929.18,2062.93L924.459,2058.18L920.672,2052.52L917.831,2044.94L915.938,2036.43L915.938,2026.02L858.196,2026.02ZM1073.97,2112.15L1128.88,2112.15L1128.88,1942.73L1073.97,1942.73L1073.97,2112.15ZM1073.97,1927.61L1128.88,1927.61L1128.88,1882.16L1073.97,1882.16L1073.97,1927.61ZM1167.67,2112.15L1222.56,2112.15L1222.56,2022.22L1223.5,2011.83L1224.45,2003.3L1226.34,1996.68L1229.18,1990.06L1232.97,1986.27L1237.7,1982.48L1243.37,1980.6L1250.95,1980.6L1257.56,1981.53L1263.26,1983.44L1267.03,1987.21L1270.8,1991.95L1272.71,1998.56L1273.67,2006.14L1273.67,2112.15L1329.51,2112.15L1329.51,2002.36L1328.55,1994.79L1328.55,1986.27L1327.6,1980.6L1326.66,1973.96L1324.77,1968.29L1322.86,1962.61L1320.02,1957.88L1312.45,1950.3L1308.67,1947.46L1304.88,1944.63L1299.21,1942.73L1293.53,1940.86L1286.92,1938.95L1260.43,1938.95L1256.63,1939.89L1252.84,1940.86L1250,1942.73L1246.21,1943.69L1243.37,1945.57L1239.59,1947.46L1236.76,1949.37L1233.92,1951.26L1232.02,1954.1L1228.24,1956.94L1226.34,1959.78L1224.45,1962.61L1221.61,1966.38L1221.61,1942.73L1167.67,1942.73L1167.67,2112.15ZM1362.62,1991.95L1363.58,1990.06L1366.42,1981.53L1370.19,1974.92L1375.86,1967.36L1380.59,1960.72L1386.27,1955.04L1392.9,1951.26L1399.52,1946.53L1407.09,1943.69L1414.66,1939.89L1424.14,1938.02L1432.65,1937.06L1452.51,1937.06L1461.04,1938.02L1470.5,1939.89L1478.07,1943.69L1485.65,1947.46L1493.22,1951.26L1499.84,1955.98L1505.53,1961.65L1510.24,1968.29L1514.99,1974.92L1519.72,1982.48L1522.56,1991.02L1522.56,1991.95L1471.46,1991.95L1470.5,1988.17L1466.73,1983.44L1461.99,1979.64L1456.31,1976.8L1450.64,1974.92L1437.39,1974.92L1431.72,1976.8L1426.97,1979.64L1422.24,1983.44L1418.44,1988.17L1416.57,1991.95L1362.62,1991.95Z"/>
    </g>
    <g transform="matrix(1,0,0,1,1735.14,-901.446)">
        <path d="M1362.62,1991.95L1360.74,1998.56L1358.84,2008.03L1357.89,2018.45L1356.94,2027.91L1357.89,2038.33L1358.84,2047.78L1360.74,2057.25L1363.58,2064.82L1366.42,2073.33L1370.19,2080.91L1374.92,2087.52L1379.66,2093.2L1385.33,2098.9L1391.94,2103.61L1399.52,2108.35L1407.09,2111.18L1414.66,2114.02L1423.17,2115.93L1432.65,2116.86L1442.1,2117.82L1450.64,2116.86L1458.22,2115.93L1464.82,2114.98L1472.39,2113.09L1479.01,2111.18L1484.71,2108.35L1491.32,2105.51L1496.06,2101.74L1501.73,2097.94L1506.46,2093.2L1511.21,2088.48L1514.04,2083.75L1517.81,2078.08L1521.61,2072.37L1523.49,2065.76L1525.39,2059.13L1472.39,2059.13L1470.5,2062.93L1467.66,2066.71L1465.77,2070.51L1461.99,2073.33L1458.22,2075.24L1454.42,2076.17L1449.67,2077.11L1437.39,2077.11L1430.75,2075.24L1426.01,2072.37L1421.31,2067.67L1418.44,2062.93L1415.6,2056.29L1414.66,2049.68L1413.73,2041.17L1528.23,2041.17L1528.23,2030.75L1527.29,2020.34L1527.29,2009.94L1525.39,2000.46L1522.56,1991.95L1471.46,1991.95L1472.39,1994.79L1474.3,2001.42L1475.23,2008.99L1412.77,2008.99L1413.73,2001.42L1415.6,1994.79L1416.57,1991.95L1362.62,1991.95ZM1564.21,1991.02L1564.21,1989.11L1567.98,1980.6L1571.78,1973.03L1576.49,1966.38L1582.18,1960.72L1593.53,1949.37L1601.11,1945.57L1608.68,1941.79L1617.19,1938.95L1625.71,1937.06L1634.22,1936.11L1653.16,1936.11L1662.61,1937.06L1671.13,1938.95L1679.64,1942.73L1687.21,1945.57L1694.79,1950.3L1700.45,1955.04L1706.16,1960.72L1711.83,1966.38L1716.57,1973.96L1720.35,1981.53L1724.12,1990.06L1724.12,1991.02L1673.02,1991.02L1671.13,1987.21L1668.29,1982.48L1662.61,1978.69L1657.87,1975.87L1652.2,1973.96L1638.95,1973.96L1633.28,1975.87L1627.6,1978.69L1623.8,1982.48L1620.03,1987.21L1618.13,1991.02L1564.21,1991.02Z"/>
    </g>
    <g transform="matrix(1,0,0,1,1735.14,-901.446)">
        <path d="M1564.21,1991.02L1562.3,1998.56L1560.4,2007.1L1559.46,2016.54L1558.53,2027.91L1559.46,2037.37L1560.4,2046.84L1562.3,2056.29L1564.21,2064.82L1567.98,2072.37L1571.78,2079.95L1576.49,2086.59L1582.18,2092.26L1587.86,2097.94L1593.53,2102.67L1601.11,2106.45L1607.72,2110.25L1616.25,2113.09L1624.76,2114.98L1634.22,2115.93L1658.83,2115.93L1666.41,2114.02L1673.02,2112.15L1680.6,2110.25L1686.28,2107.41L1691.94,2104.58L1698.59,2100.78L1702.36,2097L1708.03,2092.26L1711.83,2088.48L1715.6,2082.79L1719.4,2077.11L1722.24,2071.44L1725.08,2064.82L1726.98,2058.18L1673.96,2058.18L1672.09,2061.99L1670.18,2065.76L1666.41,2069.53L1663.55,2071.44L1659.78,2073.33L1656.01,2075.24L1651.26,2076.17L1645.59,2077.11L1638.95,2076.17L1632.34,2074.28L1627.6,2071.44L1622.87,2066.71L1620.03,2061.99L1617.19,2055.36L1615.29,2047.78L1615.29,2039.26L1729.82,2039.26L1729.82,2019.38L1727.92,2008.99L1726.02,1999.52L1724.12,1991.02L1673.02,1991.02L1674.93,1993.84L1675.86,2000.46L1676.8,2008.03L1613.39,2008.03L1615.29,2000.46L1617.19,1992.88L1618.13,1991.02L1564.21,1991.02ZM1757.25,2113.09L1812.15,2113.09L1812.15,2040.21L1813.08,2026.95L1814.98,2016.54L1817.82,2008.99L1820.66,2005.19L1823.5,2002.36L1827.3,1998.56L1831.07,1996.68L1835.81,1995.72L1840.54,1994.79L1846.22,1993.84L1851.89,1992.88L1857.57,1992.88L1859.46,1993.84L1862.3,1993.84L1864.2,1994.79L1866.08,1994.79L1866.08,1938.95L1861.34,1938.95L1855.66,1939.89L1851.89,1940.86L1848.09,1940.86L1843.38,1942.73L1839.58,1943.69L1835.81,1945.57L1832.01,1947.46L1829.16,1949.37L1826.32,1952.21L1822.55,1955.04L1820.66,1957.88L1817.82,1960.72L1814.98,1964.52L1812.15,1969.23L1810.24,1973.03L1810.24,1943.69L1757.25,1943.69L1757.25,2113.09ZM1894.47,2059.13L1895.41,2065.76L1896.37,2072.37L1899.22,2078.08L1901.08,2082.79L1904.88,2088.48L1908.66,2093.2L1912.46,2097.94L1918.14,2101.74L1922.87,2104.58L1929.49,2108.35L1936.11,2110.25L1943.69,2112.15L1951.26,2114.02L1959.78,2115.93L1968.29,2115.93L1977.76,2116.86L1987.21,2115.93L1995.72,2115.93L2004.26,2114.02L2011.81,2112.15L2019.38,2110.25L2026.02,2107.41L2032.63,2104.58L2037.37,2100.78L2042.1,2097L2046.84,2092.26L2050.61,2087.52L2053.45,2082.79L2056.29,2077.11L2057.25,2070.51L2058.18,2064.82L2058.18,2046.84L2056.29,2041.17L2054.41,2037.37L2052.52,2032.63L2048.74,2028.86L2044.94,2025.09L2040.21,2021.29L2039.26,2020.34L2037.37,2019.38L2035.46,2018.45L2033.59,2017.51L2030.75,2016.54L2028.86,2015.61L2026.02,2013.71L2023.18,2013.71L2019.38,2011.83L2016.54,2010.87L2012.77,2009.94L2008.97,2008.99L2005.19,2008.03L2000.46,2006.14L1996.68,2005.19L1991.02,2003.3L1983.44,2001.42L1975.87,1999.52L1970.18,1997.62L1964.52,1994.79L1959.78,1992.88L1956.94,1990.06L1955.04,1987.21L1954.1,1983.44L1955.04,1980.6L1955.98,1976.8L1957.88,1974.92L1959.78,1973.03L1962.61,1971.13L1966.38,1970.18L1970.18,1969.23L1979.64,1969.23L1984.37,1970.18L1989.11,1971.13L1994.79,1974.92L1997.62,1978.69L1998.56,1981.53L1999.52,1986.27L2052.52,1986.27L2052.52,1979.64L2050.61,1973.96L2048.74,1969.23L2046.84,1963.56L2043.04,1958.81L2039.26,1955.04L2035.46,1951.26L2030.75,1948.43L2025.09,1945.57L2019.38,1942.73L2012.77,1940.86L2007.1,1938.95L1999.52,1937.06L1991.02,1936.11L1983.44,1935.15L1965.45,1935.15L1957.88,1937.06L1950.3,1938.02L1942.73,1938.95L1936.11,1940.86L1930.45,1943.69L1924.77,1947.46L1920.03,1950.3L1915.3,1954.1L1911.52,1958.81L1908.66,1962.61L1905.82,1968.29L1902.99,1973.03L1902.04,1978.69L1901.08,1984.37L1901.08,2000.46L1902.04,2004.26L1903.95,2008.03L1905.82,2011.83L1907.72,2015.61L1910.56,2019.38L1914.36,2022.22L1917.19,2025.09L1920.97,2027.91L1925.71,2029.79L1930.45,2032.63L1936.11,2035.46L1941.79,2037.37L1948.43,2039.26L1955.98,2042.1L1960.72,2044.01L1966.38,2045.9L1971.13,2046.84L1975.87,2047.78L1979.64,2049.68L1984.37,2049.68L1988.17,2051.58L1991.02,2052.52L1993.84,2053.45L1996.68,2054.41L1999.52,2055.36L2001.42,2057.25L2002.36,2059.13L2003.3,2061.03L2003.3,2062.93L2004.26,2064.82L2003.3,2069.53L2002.36,2072.37L2000.46,2075.24L1997.62,2077.11L1993.84,2079.01L1989.11,2080.91L1984.37,2080.91L1979.64,2081.86L1972.07,2080.91L1966.38,2080.91L1961.65,2079.01L1954.1,2073.33L1952.21,2069.53L1950.3,2064.82L1949.37,2059.13L1894.47,2059.13ZM2104.58,2070.51L2107.41,2088.48L2117.82,2104.58L2132.97,2114.02L2151.89,2117.82L2170.81,2114.02L2185,2104.58L2195.41,2088.48L2199.2,2070.51L2195.41,2051.58L2185,2036.43L2170.81,2026.02L2151.89,2022.22L2132.97,2026.02L2117.82,2036.43L2107.41,2051.58L2104.58,2070.51Z"/>
    </g>
    <g transform="matrix(1,0,0,1,1735.14,-901.446)">
        <path d="M2133.9,2059.13L2133.9,2045.9L2163.24,2045.9L2164.17,2046.84L2165.15,2046.84L2166.08,2047.78L2167.97,2048.74L2169.88,2049.68L2170.81,2050.61L2172.71,2052.52L2172.71,2053.45L2173.66,2055.36L2173.66,2059.13L2166.08,2059.13L2166.08,2056.29L2165.15,2055.36L2164.17,2054.41L2164.17,2053.45L2163.24,2053.45L2162.31,2052.52L2161.35,2052.52L2160.4,2051.58L2140.52,2051.58L2140.52,2059.13L2133.9,2059.13Z"/>
    </g>
    <g transform="matrix(1,0,0,1,1735.14,-901.446)">
        <path d="M2133.9,2059.13L2133.9,2095.1L2140.52,2095.1L2140.52,2073.33L2157.57,2073.33L2158.51,2074.28L2160.4,2074.28L2162.31,2075.24L2163.24,2075.24L2163.24,2076.17L2164.17,2077.11L2164.17,2079.01L2165.15,2079.95L2165.15,2080.91L2166.08,2087.52L2166.08,2093.2L2167.01,2095.1L2175.55,2095.1L2175.55,2093.2L2174.59,2092.26L2173.66,2091.32L2173.66,2088.48L2172.71,2087.52L2172.71,2076.17L2171.75,2075.24L2170.81,2073.33L2170.81,2072.37L2168.92,2071.44L2167.97,2071.44L2166.08,2070.51L2167.97,2069.53L2169.88,2068.6L2170.81,2066.71L2171.75,2065.76L2172.71,2064.82L2173.66,2062.93L2173.66,2059.13L2166.08,2059.13L2166.08,2062.93L2165.15,2062.93L2165.15,2064.82L2164.17,2064.82L2164.17,2065.76L2163.24,2065.76L2162.31,2066.71L2160.4,2066.71L2159.44,2067.67L2140.52,2067.67L2140.52,2059.13L2133.9,2059.13Z"/>
    </g>
</svg>
